<svg width="24" height="24" viewBox="0 0 24 24" fill="none" xmlns="http://www.w3.org/2000/svg">
<path fill-rule="evenodd" clip-rule="evenodd" d="M17.2864 10.7334C17.2864 14.4717 14.2927 17.4668 10.6432 17.4668C6.99379 17.4668 4 14.4717 4 10.7334C4 6.99502 6.99379 4 10.6432 4C14.2927 4 17.2864 6.99502 17.2864 10.7334ZM16.152 17.4634C14.6564 18.7147 12.7367 19.4668 10.6432 19.4668C5.8697 19.4668 2 15.5567 2 10.7334C2 5.91007 5.8697 2 10.6432 2C15.4167 2 19.2864 5.91007 19.2864 10.7334C19.2864 12.7421 18.6153 14.5924 17.4872 16.0678L21.7187 20.3435C22.0938 20.7224 22.0938 21.3368 21.7187 21.7158C21.3437 22.0947 20.7356 22.0947 20.3606 21.7158L16.152 17.4634Z" fill="#111111"/>
</svg>
