<svg width="40" height="40" viewBox="0 0 40 40" fill="none" xmlns="http://www.w3.org/2000/svg">
<circle cx="20" cy="20" r="20" fill="#F1F1F5"/>
<path fill-rule="evenodd" clip-rule="evenodd" d="M26.318 17.8357L23.5556 20.6979C22.6039 21.6839 21.0617 21.6839 20.11 20.6979C20.0953 20.6827 20.0856 20.6675 20.0709 20.6523C19.783 20.354 19.3193 20.354 19.0363 20.6523C18.7483 20.9507 18.7483 21.4311 19.0363 21.7244C19.0363 21.7244 19.0607 21.7497 19.0753 21.7649C20.598 23.3426 23.0724 23.3426 24.5952 21.7649L27.3575 18.9027C28.8802 17.3249 28.8802 14.7611 27.3575 13.1833C25.8299 11.6056 23.3555 11.6056 21.8328 13.1833L20.0075 15.0746C19.7195 15.3729 19.7195 15.8534 20.0075 16.1466C20.2954 16.445 20.7591 16.445 21.0422 16.1466C21.0519 16.1365 21.0617 16.1264 21.0666 16.1163L22.8626 14.2554C23.8143 13.2693 25.3614 13.2693 26.3131 14.2554C27.2648 15.2415 27.2648 16.8445 26.3131 17.8306L26.318 17.8357Z" fill="black"/>
<path fill-rule="evenodd" clip-rule="evenodd" d="M13.6767 22.1672L16.4391 19.305C17.3908 18.3189 18.933 18.3189 19.8847 19.305C19.8993 19.3202 19.9091 19.3353 19.9237 19.3505C20.2117 19.6489 20.6753 19.6489 20.9584 19.3505C21.2464 19.0522 21.2464 18.5718 20.9584 18.2785C20.9584 18.2785 20.934 18.2532 20.9194 18.238C19.3966 16.6603 16.9222 16.6603 15.3995 18.238L12.642 21.0951C11.1193 22.6729 11.1193 25.2367 12.642 26.8145C14.1648 28.3922 16.6392 28.3922 18.1619 26.8145L19.9872 24.9232C20.2751 24.6249 20.2751 24.1444 19.9872 23.8511C19.6992 23.5528 19.2356 23.5528 18.9525 23.8511C18.9428 23.8613 18.933 23.8714 18.9281 23.8815L17.1321 25.7424C16.1804 26.7285 14.6333 26.7285 13.6816 25.7424C12.7299 24.7563 12.7299 23.1533 13.6816 22.1672H13.6767Z" fill="black"/>
</svg>
