<svg width="30" height="30" viewBox="0 0 30 30" fill="none" xmlns="http://www.w3.org/2000/svg">
<path d="M8.78469 30C8.02981 30 7.38797 29.7355 6.85916 29.2064C6.33036 28.6776 6.06596 28.0358 6.06596 27.2809C6.06596 26.5257 6.33036 25.8838 6.85916 25.355C7.38797 24.8262 8.02981 24.5618 8.78469 24.5618C9.53982 24.5618 10.1818 24.8262 10.7106 25.355C11.2394 25.8838 11.5038 26.5257 11.5038 27.2809C11.5038 28.0358 11.2394 28.6776 10.7106 29.2064C10.1818 29.7355 9.53982 30 8.78469 30ZM23.8447 30C23.0896 30 22.4476 29.7355 21.9188 29.2064C21.39 28.6776 21.1256 28.0358 21.1256 27.2809C21.1256 26.5257 21.39 25.8838 21.9188 25.355C22.4476 24.8262 23.0896 24.5618 23.8447 24.5618C24.5996 24.5618 25.2414 24.8262 25.7702 25.355C26.299 25.8838 26.5634 26.5257 26.5634 27.2809C26.5634 28.0358 26.299 28.6776 25.7702 29.2064C25.2414 29.7355 24.5996 30 23.8447 30ZM7.01571 5.43823L10.9542 13.6853H21.5467C21.6363 13.6853 21.716 13.6629 21.7859 13.6181C21.8556 13.5733 21.9153 13.511 21.965 13.4313L26.1334 5.85659C26.1932 5.74705 26.1982 5.64993 26.1482 5.56525C26.0985 5.48057 26.0138 5.43823 25.8941 5.43823H7.01571ZM5.89854 3.10756H27.472C28.1075 3.10756 28.588 3.37805 28.9135 3.91902C29.2393 4.45974 29.2548 5.01198 28.9601 5.57574L23.9818 14.5935C23.727 15.0418 23.39 15.3908 22.9707 15.6407C22.5512 15.8909 22.0915 16.016 21.5917 16.016H10.2549L8.45606 19.3026C8.3763 19.4223 8.37384 19.5517 8.44868 19.6911C8.52326 19.8306 8.63526 19.9004 8.78469 19.9004H26.5634V22.2311H8.78469C7.74883 22.2311 6.97052 21.7844 6.44974 20.891C5.92871 19.9975 5.91032 19.1055 6.39458 18.215L8.61144 14.2291L2.9584 2.33067H0V0H4.42245L5.89854 3.10756Z" fill="#1C1B1F"/>
</svg>
