<svg width="30" height="29" viewBox="0 0 30 29" fill="none" xmlns="http://www.w3.org/2000/svg">
<path d="M15 12.8571C13.2321 12.8571 11.7187 12.2277 10.4598 10.9687C9.20089 9.70982 8.57143 8.19643 8.57143 6.42857C8.57143 4.66071 9.20089 3.14732 10.4598 1.88839C11.7187 0.629464 13.2321 0 15 0C16.7679 0 18.2813 0.629464 19.5402 1.88839C20.7991 3.14732 21.4286 4.66071 21.4286 6.42857C21.4286 8.19643 20.7991 9.70982 19.5402 10.9687C18.2813 12.2277 16.7679 12.8571 15 12.8571ZM0 28.3521V24.8245C0 23.9398 0.2575 23.1121 0.7725 22.3414C1.28786 21.5711 1.98089 20.9729 2.85161 20.5468C4.87375 19.5771 6.89714 18.8498 8.92179 18.3648C10.9464 17.8802 12.9725 17.6379 15 17.6379C17.0275 17.6379 19.0536 17.8802 21.0782 18.3648C23.1029 18.8498 25.1263 19.5771 27.1484 20.5468C28.0191 20.9729 28.7121 21.5711 29.2275 22.3414C29.7425 23.1121 30 23.9398 30 24.8245V28.3521H0ZM2.14286 26.2093H27.8571V24.8245C27.8571 24.3491 27.7039 23.9027 27.3975 23.4852C27.0914 23.0677 26.6677 22.7146 26.1262 22.4261C24.3627 21.5718 22.5443 20.9173 20.6711 20.4627C18.7979 20.008 16.9075 19.7807 15 19.7807C13.0925 19.7807 11.2021 20.008 9.32893 20.4627C7.45571 20.9173 5.63732 21.5718 3.87375 22.4261C3.33232 22.7146 2.90857 23.0677 2.6025 23.4852C2.29607 23.9027 2.14286 24.3491 2.14286 24.8245V26.2093ZM15 10.7143C16.1786 10.7143 17.1875 10.2946 18.0268 9.45536C18.8661 8.61607 19.2857 7.60714 19.2857 6.42857C19.2857 5.25 18.8661 4.24107 18.0268 3.40179C17.1875 2.5625 16.1786 2.14286 15 2.14286C13.8214 2.14286 12.8125 2.5625 11.9732 3.40179C11.1339 4.24107 10.7143 5.25 10.7143 6.42857C10.7143 7.60714 11.1339 8.61607 11.9732 9.45536C12.8125 10.2946 13.8214 10.7143 15 10.7143Z" fill="#1C1B1F"/>
</svg>
