<svg width="85" height="84" viewBox="0 0 85 84" fill="none" xmlns="http://www.w3.org/2000/svg">
<mask id="mask0_1013_1686" style="mask-type:alpha" maskUnits="userSpaceOnUse" x="0" y="0" width="85" height="84">
<g clip-path="url(#clip0_1013_1686)">
<path d="M42.126 0L48.276 5.561L55.859 2.275L59.819 9.521L68.076 8.847L69.508 17.019L77.508 19.125L76.163 27.3L83.072 31.85L79.2 39.177L84.255 45.749L78.189 51.394L80.8 59.229L73.3 62.6L73.216 70.857L64.959 71.615L62.259 79.45L54.171 77.428L49.116 83.915L42.123 79.45L35.13 83.915L30.075 77.428L21.99 79.449L19.29 71.614L11.033 70.856L10.953 62.6L3.453 59.23L6.065 51.395L0 45.748L5.055 39.176L1.18 31.847L8.088 27.3L6.74 19.125L14.74 17.019L16.172 8.847L24.429 9.521L28.389 2.275L35.972 5.561L42.126 0Z" fill="#6DCFF6"/>
</g>
</mask>
<g mask="url(#mask0_1013_1686)">
<rect width="84.25" height="83.91" fill="#56B8FF"/>
<path d="M25.9747 38.157V28.204H29.4607C30.427 28.1388 31.3891 28.3818 32.2087 28.898C32.5202 29.1337 32.7687 29.4427 32.9322 29.7975C33.0957 30.1524 33.169 30.542 33.1457 30.932C33.1545 31.3899 33.0233 31.8397 32.7697 32.221C32.5149 32.5953 32.1495 32.8806 31.7247 33.037C32.2051 33.1449 32.6323 33.4181 32.9317 33.809C33.2334 34.2205 33.3886 34.7211 33.3727 35.231C33.3999 35.6398 33.3312 36.0493 33.172 36.4268C33.0128 36.8042 32.7675 37.1392 32.4557 37.405C31.695 37.9436 30.7743 38.2087 29.8437 38.157H25.9747ZM28.0247 33.823V36.51H29.7817C30.1878 36.5341 30.5891 36.4116 30.9127 36.165C31.0485 36.0473 31.1557 35.9002 31.2262 35.7349C31.2967 35.5697 31.3287 35.3905 31.3197 35.211C31.3427 35.0208 31.3217 34.8279 31.2583 34.6472C31.1949 34.4664 31.0908 34.3026 30.9541 34.1685C30.8173 34.0343 30.6516 33.9334 30.4696 33.8735C30.2876 33.8136 30.0944 33.7963 29.9047 33.823H28.0247ZM28.0247 32.374H29.5427C30.5773 32.356 31.0947 31.9437 31.0947 31.137C31.1118 30.9551 31.0851 30.7717 31.0167 30.6022C30.9483 30.4327 30.8403 30.2821 30.7017 30.163C30.33 29.9346 29.8956 29.8295 29.4607 29.863H28.0247V32.374ZM40.8967 33.844H36.9597V36.51H41.5817V38.157H34.9097V28.204H41.5677V29.865H36.9597V32.237H40.8977L40.8967 33.844ZM47.9447 35.544C47.954 35.3732 47.9215 35.2027 47.8501 35.0473C47.7787 34.8918 47.6704 34.7562 47.5347 34.652C47.0784 34.3607 46.5808 34.1398 46.0587 33.997C45.4773 33.8198 44.9125 33.5923 44.3707 33.317C43.8804 33.1126 43.4596 32.7709 43.1587 32.3331C42.8579 31.8953 42.6898 31.38 42.6747 30.849C42.6662 30.3335 42.824 29.8289 43.1247 29.41C43.4586 28.9646 43.9112 28.6222 44.4307 28.422C45.0377 28.1776 45.6874 28.0569 46.3417 28.067C46.9956 28.0552 47.6442 28.187 48.2417 28.453C48.7701 28.685 49.2211 29.0632 49.5417 29.543C49.851 30.0186 50.0115 30.5757 50.0027 31.143H47.9527C47.9642 30.9452 47.9318 30.7473 47.8578 30.5635C47.7838 30.3797 47.6701 30.2146 47.5247 30.08C47.182 29.8086 46.751 29.6736 46.3147 29.701C45.9007 29.6759 45.4899 29.7877 45.1457 30.019C45.0123 30.1136 44.9042 30.2395 44.8308 30.3856C44.7575 30.5317 44.721 30.6936 44.7247 30.857C44.7288 31.0233 44.776 31.1856 44.8617 31.3281C44.9474 31.4707 45.0687 31.5885 45.2137 31.67C45.6617 31.9423 46.1462 32.1494 46.6527 32.285C47.5928 32.5159 48.4659 32.9631 49.2027 33.591C49.4636 33.8412 49.6695 34.143 49.8073 34.4772C49.945 34.8114 50.0116 35.1706 50.0027 35.532C50.0174 35.9238 49.936 36.3131 49.7655 36.6661C49.595 37.0192 49.3407 37.325 49.0247 37.557C48.2518 38.0836 47.3276 38.3425 46.3937 38.294C45.6745 38.3036 44.9614 38.1605 44.3017 37.874C43.7225 37.6337 43.2234 37.2339 42.8627 36.721C42.5257 36.219 42.3512 35.6255 42.3627 35.021H44.4247C44.4247 36.119 45.081 36.668 46.3937 36.668C46.7964 36.6908 47.1961 36.5858 47.5357 36.368C47.6668 36.2757 47.7729 36.1523 47.8445 36.0088C47.9161 35.8653 47.9508 35.7063 47.9457 35.546L47.9447 35.544ZM58.8827 29.865H55.8337V38.157H53.7837V29.865H50.7757V28.204H58.8827V29.865ZM25.9097 52.842C25.895 53.3221 25.7823 53.7941 25.5786 54.229C25.3748 54.6639 25.0842 55.0525 24.7247 55.371C23.9299 56.0144 22.9261 56.343 21.9047 56.294C21.3379 56.3213 20.7724 56.2194 20.2508 55.9961C19.7292 55.7728 19.2651 55.4339 18.8937 55.005C18.112 53.9971 17.7213 52.7405 17.7937 51.467V50.857C17.7759 49.9872 17.9486 49.124 18.2997 48.328C18.6039 47.6372 19.1074 47.0529 19.7457 46.65C20.4035 46.252 21.161 46.0494 21.9297 46.066C22.9372 46.0181 23.9265 46.3471 24.7047 46.989C25.4352 47.6598 25.8733 48.5905 25.9247 49.581H23.8737C23.8751 49.0638 23.6836 48.5646 23.3367 48.181C22.9424 47.8632 22.4416 47.708 21.9367 47.747C21.6393 47.728 21.342 47.7856 21.0733 47.9143C20.8046 48.043 20.5733 48.2384 20.4017 48.482C20.0106 49.1755 19.8289 49.9674 19.8787 50.762V51.514C19.8196 52.3302 19.989 53.1466 20.3677 53.872C20.5365 54.1208 20.768 54.3207 21.0387 54.4515C21.3094 54.5823 21.6098 54.6394 21.9097 54.617C22.4202 54.6568 22.9269 54.5018 23.3277 54.183C23.6713 53.8201 23.8633 53.3397 23.8647 52.84L25.9097 52.842ZM35.3567 56.157H33.3067V51.891H29.3067V56.157H27.2557V46.204H29.3067V50.237H33.3067V46.204H35.3577L35.3567 56.157ZM45.3247 51.406C45.3437 52.2929 45.1661 53.1729 44.8047 53.983C44.4884 54.6868 43.971 55.2814 43.3177 55.692C42.6504 56.0987 41.881 56.3068 41.0997 56.292C40.3224 56.3049 39.5572 56.0987 38.8917 55.697C38.2363 55.289 37.7149 54.698 37.3917 53.997C37.0232 53.2016 36.8387 52.3335 36.8517 51.457V50.965C36.8333 50.0739 37.0143 49.19 37.3817 48.378C37.7019 47.6709 38.2237 47.074 38.8817 46.662C39.5471 46.2569 40.3138 46.0489 41.0927 46.062C41.8716 46.0489 42.6383 46.2569 43.3037 46.662C43.9616 47.074 44.4834 47.6709 44.8037 48.378C45.1673 49.1881 45.3453 50.0693 45.3247 50.957V51.406ZM43.2457 50.957C43.2994 50.1259 43.1041 49.2976 42.6847 48.578C42.5105 48.3163 42.2717 48.1039 41.9914 47.9615C41.7111 47.8191 41.3988 47.7514 41.0847 47.765C40.7729 47.7512 40.4628 47.8175 40.184 47.9575C39.9051 48.0976 39.6668 48.3067 39.4917 48.565C39.072 49.2762 38.8745 50.0967 38.9247 50.921V51.406C38.8769 52.2322 39.0719 53.0543 39.4857 53.771C39.6573 54.0402 39.8966 54.2596 40.1797 54.4072C40.4628 54.5548 40.7797 54.6254 41.0987 54.612C41.4105 54.6256 41.7205 54.5581 41.9985 54.4161C42.2764 54.2741 42.5128 54.0626 42.6847 53.802C43.0992 53.0867 43.2943 52.2653 43.2457 51.44V50.957ZM48.9947 56.157H46.9437V46.204H48.9947V56.157ZM58.7087 52.842C58.6942 53.322 58.5816 53.794 58.378 54.2289C58.1744 54.6638 57.884 55.0525 57.5247 55.371C56.7299 56.0144 55.7261 56.343 54.7047 56.294C54.1379 56.3213 53.5724 56.2194 53.0508 55.9961C52.5292 55.7728 52.0651 55.4339 51.6937 55.005C50.912 53.9971 50.5213 52.7405 50.5937 51.467V50.857C50.5759 49.9872 50.7486 49.124 51.0997 48.328C51.4039 47.6372 51.9074 47.0529 52.5457 46.65C53.2035 46.252 53.961 46.0494 54.7297 46.066C55.7372 46.0181 56.7265 46.3471 57.5047 46.989C58.2352 47.6598 58.6733 48.5905 58.7247 49.581H56.6717C56.6731 49.0638 56.4816 48.5646 56.1347 48.181C55.7404 47.8632 55.2396 47.708 54.7347 47.747C54.4373 47.728 54.14 47.7856 53.8713 47.9143C53.6026 48.043 53.3713 48.2384 53.1997 48.482C52.8086 49.1755 52.6269 49.9674 52.6767 50.762V51.514C52.6176 52.3302 52.787 53.1466 53.1657 53.872C53.3345 54.1208 53.566 54.3207 53.8367 54.4515C54.1074 54.5823 54.4078 54.6394 54.7077 54.617C55.2176 54.6571 55.7239 54.5028 56.1247 54.185C56.4683 53.8221 56.6603 53.3417 56.6617 52.842H58.7087ZM66.0437 51.842H62.1057V54.508H66.7247V56.157H60.0557V46.204H66.7137V47.865H62.1057V50.237H66.0437V51.842Z" fill="white"/>
</g>
<defs>
<clipPath id="clip0_1013_1686">
<rect width="84.251" height="83.914" fill="white"/>
</clipPath>
</defs>
</svg>
